TITLE ""
FILE "Step3_Track24.mp3" MP3
  TRACK 01 AUDIO
    TITLE "Step3_Track24_01"
    INDEX 01 00:00:00
  TRACK 02 AUDIO
    TITLE "Step3_Track24_02"
    INDEX 01 00:00:22
  TRACK 03 AUDIO
    TITLE "Step3_Track24_03"
    INDEX 01 00:01:72
  TRACK 04 AUDIO
    TITLE "Step3_Track24_04"
    INDEX 01 00:02:48
  TRACK 05 AUDIO
    TITLE "Step3_Track24_05"
    INDEX 01 00:03:48
  TRACK 06 AUDIO
    TITLE "Step3_Track24_06"
    INDEX 01 00:03:65
  TRACK 07 AUDIO
    TITLE "Step3_Track24_07"
    INDEX 01 00:07:12
  TRACK 08 AUDIO
    TITLE "Step3_Track24_08"
    INDEX 01 00:07:24
  TRACK 09 AUDIO
    TITLE "Step3_Track24_09"
    INDEX 01 00:08:20
  TRACK 10 AUDIO
    TITLE "Step3_Track24_10"
    INDEX 01 00:08:29
  TRACK 11 AUDIO
    TITLE "Step3_Track24_11"
    INDEX 01 00:11:00
  TRACK 12 AUDIO
    TITLE "Step3_Track24_12"
    INDEX 01 00:11:30
  TRACK 13 AUDIO
    TITLE "Step3_Track24_13"
    INDEX 01 00:12:23
  TRACK 14 AUDIO
    TITLE "Step3_Track24_14"
    INDEX 01 00:12:49
  TRACK 15 AUDIO
    TITLE "Step3_Track24_15"
    INDEX 01 00:15:53
  TRACK 16 AUDIO
    TITLE "Step3_Track24_16"
    INDEX 01 00:15:69
  TRACK 17 AUDIO
    TITLE "Step3_Track24_17"
    INDEX 01 00:16:62
  TRACK 18 AUDIO
    TITLE "Step3_Track24_18"
    INDEX 01 00:17:13
  TRACK 19 AUDIO
    TITLE "Step3_Track24_19"
    INDEX 01 00:19:12
  TRACK 20 AUDIO
    TITLE "Step3_Track24_20"
    INDEX 01 00:19:31
  TRACK 21 AUDIO
    TITLE "Step3_Track24_21"
    INDEX 01 00:20:25
  TRACK 22 AUDIO
    TITLE "Step3_Track24_22"
    INDEX 01 00:20:52
  TRACK 23 AUDIO
    TITLE "Step3_Track24_23"
    INDEX 01 00:23:41
  TRACK 24 AUDIO
    TITLE "Step3_Track24_24"
    INDEX 01 00:23:60
  TRACK 25 AUDIO
    TITLE "Step3_Track24_25"
    INDEX 01 00:24:62
  TRACK 26 AUDIO
    TITLE "Step3_Track24_26"
    INDEX 01 00:25:06
  TRACK 27 AUDIO
    TITLE "Step3_Track24_27"
    INDEX 01 00:27:29
  TRACK 28 AUDIO
    TITLE "Step3_Track24_28"
    INDEX 01 00:27:64
  TRACK 29 AUDIO
    TITLE "Step3_Track24_29"
    INDEX 01 00:28:67
  TRACK 30 AUDIO
    TITLE "Step3_Track24_30"
    INDEX 01 00:29:20
  TRACK 31 AUDIO
    TITLE "Step3_Track24_31"
    INDEX 01 00:32:06
  TRACK 32 AUDIO
    TITLE "Step3_Track24_32"
    INDEX 01 00:32:28
  TRACK 33 AUDIO
    TITLE "Step3_Track24_33"
    INDEX 01 00:33:18
  TRACK 34 AUDIO
    TITLE "Step3_Track24_34"
    INDEX 01 00:33:31
  TRACK 35 AUDIO
    TITLE "Step3_Track24_35"
    INDEX 01 00:36:08
  TRACK 36 AUDIO
    TITLE "Step3_Track24_36"
    INDEX 01 00:36:18
  TRACK 37 AUDIO
    TITLE "Step3_Track24_37"
    INDEX 01 00:37:17
  TRACK 38 AUDIO
    TITLE "Step3_Track24_38"
    INDEX 01 00:37:31
  TRACK 39 AUDIO
    TITLE "Step3_Track24_39"
    INDEX 01 00:40:08
  TRACK 40 AUDIO
    TITLE "Step3_Track24_40"
    INDEX 01 00:40:12
  TRACK 41 AUDIO
    TITLE "Step3_Track24_41"
    INDEX 01 00:41:07
  TRACK 42 AUDIO
    TITLE "Step3_Track24_42"
    INDEX 01 00:41:29
  TRACK 43 AUDIO
    TITLE "Step3_Track24_43"
    INDEX 01 00:43:51
